<svg xmlns="http://www.w3.org/2000/svg" viewBox="0 0 24 24" fill="none">
  <defs>
    <linearGradient id="grad1" x1="0%" y1="0%" x2="100%" y2="100%">
      <stop offset="0%" style="stop-color:#2563eb;stop-opacity:1" />
      <stop offset="100%" style="stop-color:#4f46e5;stop-opacity:1" />
    </linearGradient>
  </defs>
  <rect width="24" height="24" rx="4" fill="url(#grad1)"/>
  <path d="M17 2H7C5.9 2 5 2.9 5 4V20C5 21.1 5.9 22 7 22H17C18.1 22 19 21.1 19 20V4C19 2.9 18.1 2 17 2ZM17 20H7V4H17V20Z" fill="white"/>
  <path d="M12 18C12.83 18 13.5 17.33 13.5 16.5C13.5 15.67 12.83 15 12 15C11.17 15 10.5 15.67 10.5 16.5C10.5 17.33 11.17 18 12 18Z" fill="white"/>
</svg> 